<svg width="166" height="40" viewBox="0 0 166 40" fill="none" xmlns="http://www.w3.org/2000/svg">
<path d="M1.04 39H6.682L9.412 30.55H24.778L27.56 39H33.202L21.034 1.56H13.208L1.04 39ZM11.076 25.454L17.056 6.994L23.114 25.454H11.076ZM48.3446 39.702C50.6846 39.702 52.7992 39.1733 54.6886 38.116C56.5779 37.0587 58.0772 35.6027 59.1866 33.748C60.2959 31.876 60.8506 29.7527 60.8506 27.378C60.8506 25.35 60.4519 23.4953 59.6546 21.814C58.8746 20.1327 57.7479 18.7547 56.2746 17.68C54.8186 16.588 53.0766 15.9033 51.0486 15.626L60.3046 6.734V1.56H37.7886V6.734H53.6486L42.2086 16.848L44.7566 21.138C45.9179 20.514 47.0966 20.202 48.2926 20.202C50.3726 20.202 52.0539 20.878 53.3366 22.23C54.6366 23.582 55.2866 25.298 55.2866 27.378C55.2866 29.4407 54.6452 31.148 53.3626 32.5C52.0799 33.8347 50.4072 34.5193 48.3446 34.554C46.8192 34.5713 45.4326 34.1553 44.1846 33.306C42.9366 32.4567 42.0612 31.2173 41.5586 29.588L36.3066 31.044C36.8439 32.812 37.7019 34.346 38.8806 35.646C40.0766 36.946 41.4892 37.9513 43.1186 38.662C44.7479 39.3553 46.4899 39.702 48.3446 39.702ZM66.5844 38.974H91.9084V33.8H74.9824L85.8244 24.128C87.1764 22.932 88.303 21.8227 89.2044 20.8C90.1057 19.7773 90.7817 18.668 91.2324 17.472C91.683 16.2587 91.9084 14.8027 91.9084 13.104C91.9084 10.7293 91.3624 8.61467 90.2704 6.76C89.1957 4.90533 87.7224 3.44933 85.8504 2.392C83.9784 1.31733 81.8637 0.779999 79.5064 0.779999C77.0277 0.779999 74.8177 1.3 72.8764 2.34C70.9524 3.36266 69.4444 4.79267 68.3524 6.63C67.2604 8.45 66.7144 10.5733 66.7144 13H72.2784C72.261 11.7347 72.5557 10.5733 73.1624 9.516C73.7864 8.44133 74.6357 7.58333 75.7104 6.942C76.785 6.28333 78.0157 5.954 79.4024 5.954C81.413 5.954 83.0684 6.63 84.3684 7.982C85.6684 9.334 86.3184 11.0153 86.3184 13.026C86.3184 14.0833 86.0757 15.1407 85.5904 16.198C85.1224 17.238 84.2297 18.3473 82.9124 19.526L66.6104 34.138L66.5844 38.974ZM98.1439 39H103.656V11.154L122.09 39H127.602V1.56H122.09V29.38L103.656 1.56H98.1439V39Z" fill="#1F2A3C"/>
<g filter="url(#filter0_ii_158_117)">
<path d="M140.256 39L148.524 26.104L156.74 39H165.424L152.892 20.072L165.112 1.56H156.376L148.524 14.04L140.568 1.56H131.884L144.104 20.072L131.52 39H140.256Z" fill="url(#paint0_linear_158_117)"/>
</g>
<defs>
<filter id="filter0_ii_158_117" x="130.52" y="0.560059" width="35.9038" height="39.4399" filterUnits="userSpaceOnUse" color-interpolation-filters="sRGB">
<feFlood flood-opacity="0" result="BackgroundImageFix"/>
<feBlend mode="normal" in="SourceGraphic" in2="BackgroundImageFix" result="shape"/>
<feColorMatrix in="SourceAlpha" type="matrix" values="0 0 0 0 0 0 0 0 0 0 0 0 0 0 0 0 0 0 127 0" result="hardAlpha"/>
<feOffset dx="1" dy="1"/>
<feGaussianBlur stdDeviation="1"/>
<feComposite in2="hardAlpha" operator="arithmetic" k2="-1" k3="1"/>
<feColorMatrix type="matrix" values="0 0 0 0 0 0 0 0 0 0 0 0 0 0 0 0 0 0 0.07 0"/>
<feBlend mode="normal" in2="shape" result="effect1_innerShadow_158_117"/>
<feColorMatrix in="SourceAlpha" type="matrix" values="0 0 0 0 0 0 0 0 0 0 0 0 0 0 0 0 0 0 127 0" result="hardAlpha"/>
<feOffset dx="-1" dy="-1"/>
<feGaussianBlur stdDeviation="1"/>
<feComposite in2="hardAlpha" operator="arithmetic" k2="-1" k3="1"/>
<feColorMatrix type="matrix" values="0 0 0 0 0 0 0 0 0 0 0 0 0 0 0 0 0 0 0.07 0"/>
<feBlend mode="normal" in2="effect1_innerShadow_158_117" result="effect2_innerShadow_158_117"/>
</filter>
<linearGradient id="paint0_linear_158_117" x1="158.891" y1="18.3333" x2="148.461" y2="15.5639" gradientUnits="userSpaceOnUse">
<stop stop-color="#00E0FE"/>
<stop offset="1" stop-color="#02CCFF"/>
</linearGradient>
</defs>
</svg>
